<svg width="129" height="20" viewBox="0 0 129 20" fill="none" xmlns="http://www.w3.org/2000/svg">
<path d="M2.94922 16.0098H0.166016V3.8125H2.94922V9.65234L8.06641 3.8125H11.1328V3.98828L6.66992 9.17383L11.3867 15.8145V16.0098H8.25195L4.84375 11.3125L2.94922 13.4902V16.0098Z" fill="black"/>
<path d="M15.5469 10.1895H17.666C18.4538 10.1895 19.0592 10.0234 19.4824 9.69141C19.9121 9.35938 20.127 8.88086 20.127 8.25586C20.127 7.62435 19.9121 7.13281 19.4824 6.78125C19.0592 6.42969 18.4538 6.25391 17.666 6.25391H15.5469V10.1895ZM23.2422 16.0098H20.2637L17.6074 12.4746H15.5469V16.0098H12.7637V3.8125H17.6465C19.3262 3.8125 20.6185 4.19661 21.5234 4.96484C22.4349 5.72656 22.8906 6.82031 22.8906 8.24609C22.8906 9.15104 22.6725 9.92904 22.2363 10.5801C21.8001 11.2246 21.1751 11.7064 20.3613 12.0254L23.2422 15.7852V16.0098Z" fill="black"/>
<path d="M35.3027 3.8125V10.2871C35.3027 14.2194 33.4863 16.1855 29.8535 16.1855C26.2207 16.1855 24.4043 14.2129 24.4043 10.2676V3.8125H27.207V10.2676C27.207 12.5202 28.0924 13.6465 29.8633 13.6465C31.6341 13.6465 32.5195 12.5202 32.5195 10.2676V3.8125H35.3027Z" fill="black"/>
<path d="M47.0312 6.35156H43.0957V16.0098H40.3125V6.35156H36.3965V3.8125H47.0312V6.35156Z" fill="black"/>
<path d="M51.1133 10.1895H53.2324C54.0202 10.1895 54.6257 10.0234 55.0488 9.69141C55.4785 9.35938 55.6934 8.88086 55.6934 8.25586C55.6934 7.62435 55.4785 7.13281 55.0488 6.78125C54.6257 6.42969 54.0202 6.25391 53.2324 6.25391H51.1133V10.1895ZM58.8086 16.0098H55.8301L53.1738 12.4746H51.1133V16.0098H48.3301V3.8125H53.2129C54.8926 3.8125 56.1849 4.19661 57.0898 4.96484C58.0013 5.72656 58.457 6.82031 58.457 8.24609C58.457 9.15104 58.2389 9.92904 57.8027 10.5801C57.3665 11.2246 56.7415 11.7064 55.9277 12.0254L58.8086 15.7852V16.0098Z" fill="black"/>
<path d="M63.0469 16.0098H60.2637V3.8125H63.0469V16.0098Z" fill="black"/>
<path d="M77.0117 16.0098L76.8359 8.98828V8.39258L73.6328 16.0098H71.8555L68.6914 8.39258V8.92969L68.4961 16.0098H65.6738L66.1523 3.8125H69.3164L72.4512 11.166C72.5684 11.4329 72.6693 11.7194 72.7539 12.0254C72.832 11.7454 72.9264 11.459 73.0371 11.166L76.1719 3.8125H79.3555L79.834 16.0098H77.0117Z" fill="black"/>
<rect x="86.5" y="0.5" width="42" height="19" rx="3.5" stroke="url(#paint0_linear_6616_22991)"/>
<path d="M92.3885 15V5.04688H95.574C96.0571 5.04688 96.5105 5.10156 96.9344 5.21094C97.3582 5.31576 97.7251 5.47754 98.035 5.69629C98.3449 5.91504 98.5864 6.19531 98.7596 6.53711C98.9373 6.87435 99.0262 7.27539 99.0262 7.74023C99.0216 8.02279 98.9715 8.28711 98.8758 8.5332C98.7846 8.77474 98.6525 8.98893 98.4793 9.17578C98.3563 9.3125 98.2173 9.43327 98.0623 9.53809C97.9119 9.63835 97.7365 9.72949 97.5359 9.81152V9.8252C97.8322 9.90267 98.0851 10.0166 98.2947 10.167C98.5044 10.3128 98.6798 10.4792 98.8211 10.666C98.9669 10.8665 99.0763 11.0898 99.1492 11.3359C99.2267 11.5775 99.2654 11.8327 99.2654 12.1016C99.27 12.5755 99.1857 12.9925 99.0125 13.3525C98.8393 13.7126 98.6001 14.0133 98.2947 14.2549C97.9894 14.501 97.6248 14.6878 97.201 14.8154C96.7817 14.9385 96.326 15 95.8338 15H92.3885ZM94.0428 10.502V13.6465H95.8475C96.1072 13.6465 96.3442 13.61 96.5584 13.5371C96.7726 13.4642 96.9549 13.3639 97.1053 13.2363C97.2693 13.1042 97.3947 12.9424 97.4813 12.751C97.5724 12.555 97.618 12.3385 97.618 12.1016C97.618 11.8509 97.5815 11.6299 97.5086 11.4385C97.4357 11.2425 97.3263 11.0762 97.1805 10.9395C97.0346 10.8027 96.8569 10.6979 96.6473 10.625C96.4376 10.5475 96.1984 10.5065 95.9295 10.502H94.0428ZM94.0428 9.25098H95.6082C95.8771 9.24642 96.1232 9.20996 96.3465 9.1416C96.5743 9.07324 96.7658 8.97298 96.9207 8.84082C97.062 8.72233 97.1736 8.57878 97.2557 8.41016C97.3377 8.24154 97.3787 8.04785 97.3787 7.8291C97.3787 7.59668 97.34 7.39616 97.2625 7.22754C97.1896 7.05436 97.0848 6.91309 96.948 6.80371C96.7931 6.66699 96.5994 6.56901 96.367 6.50977C96.1346 6.44596 95.8771 6.41178 95.5945 6.40723H94.0428V9.25098ZM104.304 15.1367C103.757 15.1367 103.255 15.0456 102.8 14.8633C102.348 14.681 101.961 14.4281 101.638 14.1045C101.314 13.7855 101.063 13.4095 100.886 12.9766C100.712 12.5391 100.626 12.0674 100.626 11.5615V11.2812C100.626 10.7025 100.717 10.1784 100.899 9.70898C101.082 9.23958 101.332 8.83854 101.651 8.50586C101.97 8.17318 102.339 7.91797 102.759 7.74023C103.182 7.55794 103.634 7.4668 104.112 7.4668C104.645 7.4668 105.117 7.55794 105.527 7.74023C105.937 7.91797 106.281 8.16634 106.559 8.48535C106.837 8.80892 107.047 9.19401 107.188 9.64062C107.33 10.0872 107.4 10.5749 107.4 11.1035V11.8076H102.273V11.8418C102.323 12.1654 102.401 12.4365 102.506 12.6553C102.61 12.874 102.754 13.07 102.936 13.2432C103.119 13.4255 103.333 13.5667 103.579 13.667C103.83 13.7673 104.103 13.8174 104.399 13.8174C104.805 13.8174 105.183 13.7399 105.534 13.585C105.885 13.4255 106.174 13.1999 106.402 12.9082L107.277 13.7559C107.031 14.1113 106.653 14.4303 106.142 14.7129C105.637 14.9954 105.024 15.1367 104.304 15.1367ZM104.105 8.79297C103.873 8.79297 103.656 8.83626 103.456 8.92285C103.26 9.00488 103.084 9.12337 102.929 9.27832C102.775 9.43783 102.645 9.62923 102.54 9.85254C102.435 10.0758 102.358 10.3288 102.307 10.6113H105.787V10.502C105.787 10.2878 105.748 10.0758 105.671 9.86621C105.593 9.65202 105.484 9.46517 105.343 9.30566C105.206 9.15072 105.033 9.02767 104.823 8.93652C104.618 8.84082 104.379 8.79297 104.105 8.79297ZM111.841 5.79883V7.60352H114.623V8.82715H111.841V12.3613C111.841 12.6348 111.873 12.8649 111.937 13.0518C112.005 13.234 112.098 13.3776 112.217 13.4824C112.335 13.5918 112.477 13.6693 112.641 13.7148C112.805 13.7604 112.985 13.7832 113.181 13.7832C113.322 13.7832 113.468 13.7764 113.618 13.7627C113.769 13.749 113.914 13.7308 114.056 13.708C114.192 13.6898 114.32 13.6693 114.438 13.6465C114.562 13.6191 114.664 13.5964 114.746 13.5781L114.924 14.7061C114.805 14.779 114.662 14.8428 114.493 14.8975C114.329 14.9476 114.151 14.9909 113.96 15.0273C113.769 15.0638 113.568 15.0911 113.358 15.1094C113.153 15.1322 112.948 15.1436 112.743 15.1436C112.369 15.1436 112.025 15.0934 111.711 14.9932C111.401 14.8883 111.134 14.7266 110.911 14.5078C110.688 14.2936 110.512 14.0179 110.385 13.6807C110.262 13.3434 110.2 12.9378 110.2 12.4639V8.82715H108.409V7.60352H110.2V5.79883H111.841ZM120.991 15C120.941 14.9089 120.9 14.7995 120.868 14.6719C120.841 14.5397 120.816 14.403 120.793 14.2617C120.679 14.3802 120.549 14.4941 120.404 14.6035C120.262 14.7083 120.103 14.7995 119.925 14.877C119.747 14.959 119.556 15.0228 119.351 15.0684C119.146 15.1139 118.925 15.1367 118.688 15.1367C118.305 15.1367 117.954 15.082 117.635 14.9727C117.321 14.8587 117.052 14.7038 116.828 14.5078C116.6 14.3164 116.423 14.0863 116.295 13.8174C116.172 13.5439 116.111 13.25 116.111 12.9355C116.111 12.5299 116.19 12.1722 116.35 11.8623C116.514 11.5479 116.751 11.2881 117.061 11.083C117.348 10.8916 117.701 10.7458 118.12 10.6455C118.544 10.5452 119.023 10.4951 119.556 10.4951H120.745V9.99609C120.745 9.80469 120.711 9.63151 120.643 9.47656C120.579 9.32161 120.486 9.18717 120.363 9.07324C120.23 8.95931 120.069 8.87272 119.877 8.81348C119.69 8.74967 119.474 8.71777 119.228 8.71777C119.004 8.71777 118.808 8.74512 118.64 8.7998C118.476 8.85449 118.339 8.92969 118.23 9.02539C118.12 9.11198 118.038 9.21908 117.984 9.34668C117.933 9.46973 117.908 9.60189 117.908 9.74316H116.268C116.272 9.44694 116.343 9.16211 116.48 8.88867C116.616 8.61523 116.817 8.3737 117.081 8.16406C117.336 7.94987 117.651 7.78125 118.025 7.6582C118.403 7.5306 118.834 7.4668 119.317 7.4668C119.75 7.4668 120.153 7.52148 120.527 7.63086C120.905 7.73568 121.231 7.8929 121.504 8.10254C121.778 8.31217 121.992 8.57878 122.147 8.90234C122.302 9.22135 122.379 9.59049 122.379 10.0098V13.2979C122.379 13.6305 122.402 13.9313 122.447 14.2002C122.498 14.4645 122.568 14.6924 122.659 14.8838V15H120.991ZM119.002 13.8242C119.216 13.8242 119.415 13.7969 119.597 13.7422C119.784 13.6875 119.952 13.6169 120.103 13.5303C120.253 13.4437 120.383 13.3457 120.492 13.2363C120.602 13.127 120.686 13.013 120.745 12.8945V11.5273H119.693C119.337 11.5273 119.029 11.5615 118.77 11.6299C118.51 11.6937 118.303 11.7871 118.148 11.9102C118.011 12.015 117.908 12.1403 117.84 12.2861C117.776 12.432 117.744 12.596 117.744 12.7783C117.744 12.9287 117.772 13.07 117.826 13.2021C117.881 13.3298 117.961 13.4391 118.066 13.5303C118.17 13.6214 118.3 13.6943 118.455 13.749C118.61 13.7992 118.793 13.8242 119.002 13.8242Z" fill="#15141D"/>
<path d="M92.3885 15V5.04688H95.574C96.0571 5.04688 96.5105 5.10156 96.9344 5.21094C97.3582 5.31576 97.7251 5.47754 98.035 5.69629C98.3449 5.91504 98.5864 6.19531 98.7596 6.53711C98.9373 6.87435 99.0262 7.27539 99.0262 7.74023C99.0216 8.02279 98.9715 8.28711 98.8758 8.5332C98.7846 8.77474 98.6525 8.98893 98.4793 9.17578C98.3563 9.3125 98.2173 9.43327 98.0623 9.53809C97.9119 9.63835 97.7365 9.72949 97.5359 9.81152V9.8252C97.8322 9.90267 98.0851 10.0166 98.2947 10.167C98.5044 10.3128 98.6798 10.4792 98.8211 10.666C98.9669 10.8665 99.0763 11.0898 99.1492 11.3359C99.2267 11.5775 99.2654 11.8327 99.2654 12.1016C99.27 12.5755 99.1857 12.9925 99.0125 13.3525C98.8393 13.7126 98.6001 14.0133 98.2947 14.2549C97.9894 14.501 97.6248 14.6878 97.201 14.8154C96.7817 14.9385 96.326 15 95.8338 15H92.3885ZM94.0428 10.502V13.6465H95.8475C96.1072 13.6465 96.3442 13.61 96.5584 13.5371C96.7726 13.4642 96.9549 13.3639 97.1053 13.2363C97.2693 13.1042 97.3947 12.9424 97.4813 12.751C97.5724 12.555 97.618 12.3385 97.618 12.1016C97.618 11.8509 97.5815 11.6299 97.5086 11.4385C97.4357 11.2425 97.3263 11.0762 97.1805 10.9395C97.0346 10.8027 96.8569 10.6979 96.6473 10.625C96.4376 10.5475 96.1984 10.5065 95.9295 10.502H94.0428ZM94.0428 9.25098H95.6082C95.8771 9.24642 96.1232 9.20996 96.3465 9.1416C96.5743 9.07324 96.7658 8.97298 96.9207 8.84082C97.062 8.72233 97.1736 8.57878 97.2557 8.41016C97.3377 8.24154 97.3787 8.04785 97.3787 7.8291C97.3787 7.59668 97.34 7.39616 97.2625 7.22754C97.1896 7.05436 97.0848 6.91309 96.948 6.80371C96.7931 6.66699 96.5994 6.56901 96.367 6.50977C96.1346 6.44596 95.8771 6.41178 95.5945 6.40723H94.0428V9.25098ZM104.304 15.1367C103.757 15.1367 103.255 15.0456 102.8 14.8633C102.348 14.681 101.961 14.4281 101.638 14.1045C101.314 13.7855 101.063 13.4095 100.886 12.9766C100.712 12.5391 100.626 12.0674 100.626 11.5615V11.2812C100.626 10.7025 100.717 10.1784 100.899 9.70898C101.082 9.23958 101.332 8.83854 101.651 8.50586C101.97 8.17318 102.339 7.91797 102.759 7.74023C103.182 7.55794 103.634 7.4668 104.112 7.4668C104.645 7.4668 105.117 7.55794 105.527 7.74023C105.937 7.91797 106.281 8.16634 106.559 8.48535C106.837 8.80892 107.047 9.19401 107.188 9.64062C107.33 10.0872 107.4 10.5749 107.4 11.1035V11.8076H102.273V11.8418C102.323 12.1654 102.401 12.4365 102.506 12.6553C102.61 12.874 102.754 13.07 102.936 13.2432C103.119 13.4255 103.333 13.5667 103.579 13.667C103.83 13.7673 104.103 13.8174 104.399 13.8174C104.805 13.8174 105.183 13.7399 105.534 13.585C105.885 13.4255 106.174 13.1999 106.402 12.9082L107.277 13.7559C107.031 14.1113 106.653 14.4303 106.142 14.7129C105.637 14.9954 105.024 15.1367 104.304 15.1367ZM104.105 8.79297C103.873 8.79297 103.656 8.83626 103.456 8.92285C103.26 9.00488 103.084 9.12337 102.929 9.27832C102.775 9.43783 102.645 9.62923 102.54 9.85254C102.435 10.0758 102.358 10.3288 102.307 10.6113H105.787V10.502C105.787 10.2878 105.748 10.0758 105.671 9.86621C105.593 9.65202 105.484 9.46517 105.343 9.30566C105.206 9.15072 105.033 9.02767 104.823 8.93652C104.618 8.84082 104.379 8.79297 104.105 8.79297ZM111.841 5.79883V7.60352H114.623V8.82715H111.841V12.3613C111.841 12.6348 111.873 12.8649 111.937 13.0518C112.005 13.234 112.098 13.3776 112.217 13.4824C112.335 13.5918 112.477 13.6693 112.641 13.7148C112.805 13.7604 112.985 13.7832 113.181 13.7832C113.322 13.7832 113.468 13.7764 113.618 13.7627C113.769 13.749 113.914 13.7308 114.056 13.708C114.192 13.6898 114.32 13.6693 114.438 13.6465C114.562 13.6191 114.664 13.5964 114.746 13.5781L114.924 14.7061C114.805 14.779 114.662 14.8428 114.493 14.8975C114.329 14.9476 114.151 14.9909 113.96 15.0273C113.769 15.0638 113.568 15.0911 113.358 15.1094C113.153 15.1322 112.948 15.1436 112.743 15.1436C112.369 15.1436 112.025 15.0934 111.711 14.9932C111.401 14.8883 111.134 14.7266 110.911 14.5078C110.688 14.2936 110.512 14.0179 110.385 13.6807C110.262 13.3434 110.2 12.9378 110.2 12.4639V8.82715H108.409V7.60352H110.2V5.79883H111.841ZM120.991 15C120.941 14.9089 120.9 14.7995 120.868 14.6719C120.841 14.5397 120.816 14.403 120.793 14.2617C120.679 14.3802 120.549 14.4941 120.404 14.6035C120.262 14.7083 120.103 14.7995 119.925 14.877C119.747 14.959 119.556 15.0228 119.351 15.0684C119.146 15.1139 118.925 15.1367 118.688 15.1367C118.305 15.1367 117.954 15.082 117.635 14.9727C117.321 14.8587 117.052 14.7038 116.828 14.5078C116.6 14.3164 116.423 14.0863 116.295 13.8174C116.172 13.5439 116.111 13.25 116.111 12.9355C116.111 12.5299 116.19 12.1722 116.35 11.8623C116.514 11.5479 116.751 11.2881 117.061 11.083C117.348 10.8916 117.701 10.7458 118.12 10.6455C118.544 10.5452 119.023 10.4951 119.556 10.4951H120.745V9.99609C120.745 9.80469 120.711 9.63151 120.643 9.47656C120.579 9.32161 120.486 9.18717 120.363 9.07324C120.23 8.95931 120.069 8.87272 119.877 8.81348C119.69 8.74967 119.474 8.71777 119.228 8.71777C119.004 8.71777 118.808 8.74512 118.64 8.7998C118.476 8.85449 118.339 8.92969 118.23 9.02539C118.12 9.11198 118.038 9.21908 117.984 9.34668C117.933 9.46973 117.908 9.60189 117.908 9.74316H116.268C116.272 9.44694 116.343 9.16211 116.48 8.88867C116.616 8.61523 116.817 8.3737 117.081 8.16406C117.336 7.94987 117.651 7.78125 118.025 7.6582C118.403 7.5306 118.834 7.4668 119.317 7.4668C119.75 7.4668 120.153 7.52148 120.527 7.63086C120.905 7.73568 121.231 7.8929 121.504 8.10254C121.778 8.31217 121.992 8.57878 122.147 8.90234C122.302 9.22135 122.379 9.59049 122.379 10.0098V13.2979C122.379 13.6305 122.402 13.9313 122.447 14.2002C122.498 14.4645 122.568 14.6924 122.659 14.8838V15H120.991ZM119.002 13.8242C119.216 13.8242 119.415 13.7969 119.597 13.7422C119.784 13.6875 119.952 13.6169 120.103 13.5303C120.253 13.4437 120.383 13.3457 120.492 13.2363C120.602 13.127 120.686 13.013 120.745 12.8945V11.5273H119.693C119.337 11.5273 119.029 11.5615 118.77 11.6299C118.51 11.6937 118.303 11.7871 118.148 11.9102C118.011 12.015 117.908 12.1403 117.84 12.2861C117.776 12.432 117.744 12.596 117.744 12.7783C117.744 12.9287 117.772 13.07 117.826 13.2021C117.881 13.3298 117.961 13.4391 118.066 13.5303C118.17 13.6214 118.3 13.6943 118.455 13.749C118.61 13.7992 118.793 13.8242 119.002 13.8242Z" fill="url(#paint1_linear_6616_22991)"/>
<defs>
<linearGradient id="paint0_linear_6616_22991" x1="85" y1="10" x2="215.5" y2="10" gradientUnits="userSpaceOnUse">
<stop stop-color="#1EC2BF"/>
<stop offset="1" stop-color="#53B71E"/>
</linearGradient>
<linearGradient id="paint1_linear_6616_22991" x1="90.2326" y1="10" x2="190.384" y2="10" gradientUnits="userSpaceOnUse">
<stop stop-color="#1EC2BF"/>
<stop offset="1" stop-color="#53B71E"/>
</linearGradient>
</defs>
</svg>
